<?xml version="1.0"?>
<svg xmlns="http://www.w3.org/2000/svg" xmlns:xlink="http://www.w3.org/1999/xlink" xmlns:svgjs="http://svgjs.com/svgjs" version="1.1" width="512" height="512" x="0" y="0" viewBox="0 0 512 512" style="enable-background:new 0 0 512 512" xml:space="preserve"><g><g xmlns="http://www.w3.org/2000/svg"><path d="m175.67 180.625h160.66c5.532 0 10.615-3.045 13.225-7.922s2.325-10.795-.744-15.398l-80.33-120.5c-2.781-4.173-7.465-6.68-12.48-6.68s-9.699 2.507-12.48 6.68l-80.33 120.5c-3.069 4.603-3.354 10.521-.744 15.398 2.608 4.877 7.691 7.922 13.223 7.922z" fill="#ff0000" data-original="#000000" style=""/><path d="m509.481 458.555-64.784-97.18h-93.367v120.5h145.67c5.532 0 10.614-3.045 13.226-7.922 2.609-4.877 2.324-10.795-.745-15.398z" fill="#ff0000" data-original="#000000" style=""/><path d="m241 331.375v-120.5h-65.33c-5.015 0-9.698 2.506-12.48 6.679l-75.887 113.821z" fill="#ff0000" data-original="#000000" style=""/><path d="m271 331.375h153.697l-75.887-113.821c-2.782-4.173-7.466-6.679-12.48-6.679h-65.33z" fill="#ff0000" data-original="#000000" style=""/><path d="m160.67 361.375h-93.367l-64.783 97.18c-3.069 4.603-3.354 10.521-.745 15.398 2.611 4.877 7.693 7.922 13.226 7.922h145.67v-120.5z" fill="#ff0000" data-original="#000000" style=""/><path d="m190.67 361.375h130.66v120.5h-130.66z" fill="#ff0000" data-original="#000000" style=""/></g></g></svg>
